<svg version="1.0" xmlns="http://www.w3.org/2000/svg" width="90" height="42"
    viewBox="0 0 160.000000 82.000000" preserveAspectRatio="xMidYMid meet">

    <!-- Rectángulo de fondo negro -->
    <rect width="100%" height="100%" fill="white"/>
    
    <g transform="translate(0.000000,82.000000) scale(0.100000,-0.100000)" fill="black" stroke="none">
        <path d="M0 410 l0 -410 800 0 800 0 0 410 0 410 -800 0 -800 0 0 -410z m177
292 c32 -27 79 -63 105 -81 62 -41 242 -100 341 -110 60 -7 84 -14 103 -32 13
-12 24 -28 24 -35 0 -7 10 -22 22 -34 l22 -20 -21 0 c-15 0 -29 13 -44 40 -25
44 -58 60 -124 60 -58 0 -205 43 -290 85 -38 19 -98 59 -133 90 -69 60 -82 66
-82 34 0 -33 60 -108 109 -137 24 -14 39 -28 33 -30 -10 -3 -68 24 -104 50
-48 34 -24 -46 27 -90 18 -16 53 -37 78 -48 26 -10 47 -22 47 -26 0 -13 -19
-9 -71 13 -27 12 -53 19 -56 15 -20 -20 109 -106 159 -106 16 0 19 -3 11 -11
-8 -8 -25 -7 -64 4 -57 17 -65 16 -56 -7 12 -30 60 -49 150 -61 69 -8 86 -13
68 -19 -13 -5 -53 -5 -90 -1 -66 7 -66 7 -48 -13 34 -37 157 -53 220 -27 9 4
17 3 17 -3 0 -15 -57 -32 -106 -32 -48 0 -59 -16 -19 -26 26 -6 105 -1 145 10
l25 8 -24 -21 c-13 -12 -37 -21 -57 -21 -36 0 -53 -14 -28 -24 30 -11 69 -6
129 19 72 30 73 30 50 5 -20 -22 -102 -50 -147 -50 -17 0 -39 10 -51 23 -13
12 -36 27 -53 32 -16 6 -30 19 -32 30 -2 12 -20 28 -45 40 -29 14 -43 27 -45
43 -2 13 -14 27 -27 32 -40 15 -65 49 -55 75 7 18 3 28 -21 51 -23 22 -29 35
-25 55 4 19 -1 33 -19 49 -35 33 -47 73 -29 98 13 19 12 25 -6 54 -23 37 -26
68 -8 86 20 20 33 14 95 -36z m1378 8 c4 -12 -2 -39 -15 -66 -18 -35 -20 -47
-10 -59 16 -19 6 -56 -26 -94 -17 -21 -23 -37 -19 -51 5 -15 -2 -29 -27 -54
-24 -24 -33 -42 -33 -67 0 -29 -5 -37 -35 -51 -20 -10 -37 -28 -40 -40 -3 -15
-21 -30 -48 -43 -26 -12 -45 -28 -48 -42 -4 -12 -17 -24 -32 -28 -15 -3 -34
-15 -43 -27 -30 -39 -177 -14 -220 38 -17 20 -1 17 55 -11 50 -26 146 -35 146
-15 0 6 -12 10 -26 10 -27 0 -84 29 -84 42 0 11 3 10 36 -7 37 -19 115 -19
140 0 10 8 15 15 9 15 -88 7 -120 12 -137 21 -33 18 -12 22 41 9 55 -13 119
-7 164 16 46 24 31 34 -53 34 -44 0 -80 3 -80 8 0 4 32 8 70 8 82 2 156 26
165 55 9 29 5 30 -50 14 -55 -17 -75 -19 -75 -7 0 5 22 14 49 21 54 14 131 65
131 87 0 17 5 18 -58 -6 -58 -22 -72 -24 -72 -11 0 5 13 12 29 16 50 11 119
62 140 104 25 47 13 61 -27 33 -43 -30 -92 -53 -92 -43 0 5 21 23 48 40 47 30
102 103 102 135 0 19 -14 21 -32 3 -38 -38 -129 -102 -180 -128 -73 -37 -208
-76 -290 -84 -97 -10 -103 -12 -132 -55 -14 -22 -34 -40 -43 -40 -14 0 -14 2
-1 18 8 9 19 29 25 43 15 35 70 59 135 59 64 0 257 56 319 92 24 15 72 49 107
77 68 55 106 65 117 31z" />
    </g>
</svg>
